<?xml version="1.0" encoding="UTF-8" standalone="no"?><!DOCTYPE svg PUBLIC "-//W3C//DTD SVG 1.1//EN" "http://www.w3.org/Graphics/SVG/1.1/DTD/svg11.dtd"><svg width="100%" height="100%" viewBox="0 0 1067 1067" version="1.1" xmlns="http://www.w3.org/2000/svg" xmlns:xlink="http://www.w3.org/1999/xlink" xml:space="preserve" xmlns:serif="http://www.serif.com/" style="fill-rule:evenodd;clip-rule:evenodd;stroke-linejoin:round;stroke-miterlimit:2;"><g id="Windrose"><circle cx="533.333" cy="533.333" r="510.417" style="fill:#fff;"/><path d="M537.867,147.917c9.134,3.8 12.283,9.328 15.527,18.405l56.975,209.019l126.863,-71.516c19.842,-8.857 35.81,9.956 25.921,28.864l-71.242,125.474l215.302,58.67c16.567,8.26 14.866,30.748 -2.362,36.936l-212.908,58.042l72.03,126.196c7.496,18.593 -11.811,34.14 -29.259,24.655l-125.824,-71.044l-59.243,214.295c-7.37,17.117 -29.7,17.117 -37.101,0l-59.243,-214.295l-126.8,71.578c-19.464,5.057 -32.094,-13.191 -22.96,-30.434l69.731,-123.967l-212.971,-57.979c-17.448,-7.726 -16.031,-31.408 1.543,-37.627l212.908,-58.042c0.787,-1.099 -3.401,-8.386 -4.283,-10.019c-21.669,-41.144 -48.818,-79.839 -67.935,-122.145c-0.126,-14.196 12.252,-25.283 26.488,-20.258l127.272,71.107l56.975,-209.019c2.331,-9.014 7.181,-13.474 15.527,-16.897l9.071,0Zm-9.071,375.009l3.779,-347.904l-74.171,268.882l70.392,79.022Zm-83.053,-75.316l-119.304,-121.956l75.494,131.85c4.567,2.89 36.094,-10.05 43.81,-9.862l0,-0.031Zm172.185,-1.476l123.808,-120.48l-134.107,75.599c-2.709,4.617 10.834,37.03 10.299,44.882Zm273.347,87.376l-268.151,-72.395l-4.535,1.508l-76.187,67.841c37.416,2.858 75.053,0.911 112.564,1.445c71.242,1.036 143.146,2.418 214.325,4.648c6.11,0.188 18.236,1.822 21.952,-3.047l0.031,0Zm-367.014,2.984l-348.873,-3.769l269.631,73.965l79.242,-70.196Zm7.559,355.442l73.447,-268.882l-69.668,-79.022l-3.779,347.904Zm209.948,-150.632l-74.738,-131.033c-1.606,-1.979 -3.685,-1.57 -5.858,-1.413c-11.118,0.754 -26.991,9.108 -38.708,10.49l119.304,121.956Zm-296.056,-118.973l-120.784,117.465l129.887,-73.023c1.984,-1.602 1.575,-3.675 1.417,-5.842c-0.756,-11.213 -9.386,-26.697 -10.519,-38.6Z" style="fill-rule:nonzero;"/></g></svg>