<?xml version="1.0" encoding="UTF-8" standalone="no"?><!DOCTYPE svg PUBLIC "-//W3C//DTD SVG 1.1//EN" "http://www.w3.org/Graphics/SVG/1.1/DTD/svg11.dtd"><svg width="100%" height="100%" viewBox="0 0 1067 1067" version="1.1" xmlns="http://www.w3.org/2000/svg" xmlns:xlink="http://www.w3.org/1999/xlink" xml:space="preserve" xmlns:serif="http://www.serif.com/" style="fill-rule:evenodd;clip-rule:evenodd;stroke-linejoin:round;stroke-miterlimit:2;"><g id="Windrose-2"><path d="M538.333,20.833c12.083,5.042 16.25,12.375 20.542,24.417l75.375,277.292l167.833,-94.875c26.25,-11.75 47.375,13.208 34.292,38.292l-94.25,166.458l284.833,77.833c21.917,10.958 19.667,40.792 -3.125,49l-281.667,77l95.292,167.417c9.917,24.667 -15.625,45.292 -38.708,32.708l-166.458,-94.25l-78.375,284.292c-9.75,22.708 -39.292,22.708 -49.083,0l-78.375,-284.292l-167.75,94.958c-25.75,6.708 -42.458,-17.5 -30.375,-40.375l92.25,-164.458l-281.75,-76.917c-23.083,-10.25 -21.208,-41.667 2.042,-49.917l281.667,-77c1.042,-1.458 -4.5,-11.125 -5.667,-13.292c-28.667,-54.583 -64.583,-105.917 -89.875,-162.042c-0.167,-18.833 16.208,-33.542 35.042,-26.875l168.375,94.333l75.375,-277.292c3.083,-11.958 9.5,-17.875 20.542,-22.417l12,0Zm-12,497.5l5,-461.542l-98.125,356.708l93.125,104.833Zm-109.875,-99.917l-157.833,-161.792l99.875,174.917c6.042,3.833 47.75,-13.333 57.958,-13.083l0,-0.042Zm227.792,-1.958l163.792,-159.833l-177.417,100.292c-3.583,6.125 14.333,49.125 13.625,59.542Zm361.625,115.917l-354.75,-96.042l-6,2l-100.792,90c49.5,3.792 99.292,1.208 148.917,1.917c94.25,1.375 189.375,3.208 283.542,6.167c8.083,0.25 24.125,2.417 29.042,-4.042l0.042,-0Zm-485.542,3.958l-461.542,-5l356.708,98.125l104.833,-93.125Zm10,471.542l97.167,-356.708l-92.167,-104.833l-5,461.542Zm277.75,-199.833l-98.875,-173.833c-2.125,-2.625 -4.875,-2.083 -7.75,-1.875c-14.708,1 -35.708,12.083 -51.208,13.917l157.833,161.792Zm-391.667,-157.833l-159.792,155.833l171.833,-96.875c2.625,-2.125 2.083,-4.875 1.875,-7.75c-1,-14.875 -12.417,-35.417 -13.917,-51.208Z" style="fill:#b59a50;fill-rule:nonzero;"/></g></svg>