<?xml version="1.0" encoding="UTF-8"?>
<svg id="Windrose" xmlns="http://www.w3.org/2000/svg" viewBox="0 0 256 256">
  <style>
    :root {
      color-scheme: light dark;
    }
    path, circle, rect, polygon, g, use {
      fill: black;
    }
    @media (prefers-color-scheme: dark) {
      path, circle, rect, polygon, g, use {
        fill: white;
      }
    }
  </style>

  <g id="Windrose-2" data-name="Windrose">
    <path d="M129.2,5c2.9,1.21,3.9,2.97,4.93,5.86l18.09,66.55,40.28-22.77c6.3-2.82,11.37,3.17,8.23,9.19l-22.62,39.95,68.36,18.68c5.26,2.63,4.72,9.79-.75,11.76l-67.6,18.48,22.87,40.18c2.38,5.92-3.75,10.87-9.29,7.85l-39.95-22.62-18.81,68.23c-2.34,5.45-9.43,5.45-11.78,0l-18.81-68.23-40.26,22.79c-6.18,1.61-10.19-4.2-7.29-9.69l22.14-39.47-67.62-18.46c-5.54-2.46-5.09-10,.49-11.98l67.6-18.48c.25-.35-1.08-2.67-1.36-3.19-6.88-13.1-15.5-25.42-21.57-38.89-.04-4.52,3.89-8.05,8.41-6.45l40.41,22.64L121.39,10.38c.74-2.87,2.28-4.29,4.93-5.38h2.88ZM126.32,124.4l1.2-110.77-23.55,85.61,22.35,25.16ZM99.95,100.42l-37.88-38.83,23.97,41.98c1.45.92,11.46-3.2,13.91-3.14ZM154.62,99.95l39.31-38.36-42.58,24.07c-.86,1.47,3.44,11.79,3.27,14.29ZM241.41,127.77l-85.14-23.05-1.44.48-24.19,21.6c11.88.91,23.83.29,35.74.46,22.62.33,45.45.77,68.05,1.48,1.94.06,5.79.58,6.97-.97ZM124.88,128.72l-110.77-1.2,85.61,23.55,25.16-22.35ZM127.28,241.89l23.32-85.61-22.12-25.16-1.2,110.77ZM193.94,193.93l-23.73-41.72c-.51-.63-1.17-.5-1.86-.45-3.53.24-8.57,2.9-12.29,3.34l37.88,38.83ZM99.94,156.05l-38.35,37.4,41.24-23.25c.63-.51.5-1.17.45-1.86-.24-3.57-2.98-8.5-3.34-12.29Z"/>
  </g>
</svg>