<?xml version="1.0" encoding="UTF-8" standalone="no"?><!DOCTYPE svg PUBLIC "-//W3C//DTD SVG 1.1//EN" "http://www.w3.org/Graphics/SVG/1.1/DTD/svg11.dtd"><svg width="100%" height="100%" viewBox="0 0 1067 1067" version="1.1" xmlns="http://www.w3.org/2000/svg" xmlns:xlink="http://www.w3.org/1999/xlink" xml:space="preserve" xmlns:serif="http://www.serif.com/" style="fill-rule:evenodd;clip-rule:evenodd;stroke-linejoin:round;stroke-miterlimit:2;"><g id="Windrose"><circle cx="533.333" cy="533.333" r="437.5" style="fill:#fff;"/><path d="M537.622,168.75c8.64,3.595 11.619,8.824 14.688,17.41l53.895,197.72l120.006,-67.65c18.769,-8.378 33.874,9.418 24.519,27.304l-67.391,118.692l203.664,55.498c15.671,7.814 14.062,29.086 -2.234,34.939l-201.4,54.904l68.136,119.375c7.091,17.588 -11.172,32.295 -27.678,23.322l-119.022,-67.204l-56.04,202.712c-6.972,16.192 -28.095,16.192 -35.096,0l-56.04,-202.712l-119.946,67.709c-18.412,4.783 -30.359,-12.478 -21.719,-28.789l65.961,-117.266l-201.459,-54.845c-16.505,-7.309 -15.165,-29.71 1.46,-35.593l201.4,-54.904c0.745,-1.04 -3.218,-7.933 -4.052,-9.478c-20.497,-38.92 -46.179,-75.523 -64.263,-115.542c-0.119,-13.429 11.589,-23.917 25.056,-19.163l120.393,67.264l53.895,-197.72c2.205,-8.527 6.793,-12.746 14.688,-15.984l8.58,0Zm-8.58,354.738l3.575,-329.098l-70.162,254.348l66.587,74.751Zm-78.564,-71.245l-112.855,-115.364l71.413,124.723c4.32,2.733 34.143,-9.507 41.442,-9.329l0,-0.03Zm162.877,-1.396l117.116,-113.968l-126.858,71.512c-2.562,4.367 10.249,35.028 9.742,42.456Zm258.572,82.653l-253.656,-68.482l-4.29,1.426l-72.069,64.174c35.394,2.704 70.996,0.862 106.48,1.367c67.391,0.98 135.408,2.288 202.74,4.397c5.78,0.178 17.25,1.723 20.766,-2.882l0.03,0Zm-347.176,2.822l-330.015,-3.565l255.056,69.967l74.959,-66.402Zm7.15,336.229l69.477,-254.348l-65.902,-74.751l-3.575,329.098Zm198.599,-142.489l-70.698,-123.95c-1.519,-1.872 -3.486,-1.486 -5.541,-1.337c-10.517,0.713 -25.532,8.616 -36.615,9.923l112.855,115.364Zm-280.053,-112.542l-114.255,111.116l122.866,-69.076c1.877,-1.515 1.49,-3.476 1.341,-5.526c-0.715,-10.606 -8.878,-25.254 -9.951,-36.514Z" style="fill-rule:nonzero;"/></g></svg>